<svg width="820" height="312" viewBox="0 0 820 312" fill="none" xmlns="http://www.w3.org/2000/svg">
<path d="M519.02 103.607C522.615 104.865 525.867 108.317 527.993 112.588C530.193 117.007 531.131 122.188 530.05 126.479C529.08 130.328 527.302 132.65 525.333 133.97C523.813 134.989 522.151 135.427 520.604 135.49C520.994 134.993 521.271 134.37 521.45 133.704C521.783 132.465 521.817 130.97 521.572 129.532C521.328 128.096 520.798 126.672 519.963 125.595C519.121 124.509 517.948 123.757 516.46 123.757C513.521 123.757 511.848 126.128 511.229 128.668C510.917 129.952 510.855 131.329 511.033 132.579C511.148 133.383 511.365 134.153 511.691 134.818C511.311 134.72 510.867 134.575 510.384 134.374C509.367 133.951 508.21 133.298 507.141 132.384C505.011 130.565 503.223 127.716 503.535 123.535C503.935 118.149 507.058 114.598 510.513 111.629C511.376 110.887 512.256 110.185 513.117 109.499C513.976 108.815 514.82 108.145 515.598 107.477C517.013 106.26 518.256 105.008 519.02 103.607Z" fill="white" stroke="white"/>
<path d="M738.628 139.364H748.5V158.8H738.628V190.357C739.697 190.566 740.86 190.777 742.116 190.986C743.53 191.143 745.024 191.262 746.598 191.341L747.104 191.366L747.071 191.872L745.764 212.805L745.734 213.273H745.265C738.755 213.273 733.368 213.095 729.107 212.736C724.856 212.379 721.688 211.84 719.642 211.103V211.102C716.267 209.897 713.653 208.356 711.838 206.459L711.831 206.451C709.973 204.424 709.083 201.508 709.083 197.787V158.8H701.946V139.364H709.083V128.055L709.461 127.961L738.007 120.824L738.628 120.669V139.364Z" fill="white" stroke="white"/>
<path d="M650.866 141.668C656.854 138.703 663.43 137.223 670.586 137.223C678.093 137.223 683.851 138.699 687.781 141.728H687.78C691.721 144.686 693.685 148.843 693.685 154.136V211.727H664.14V161.773H660.238C656.768 161.773 654.323 162.13 652.838 162.796C651.591 163.389 650.866 164.765 650.866 167.22V211.727H621.321V117.991L621.784 117.957L650.329 115.815L650.866 115.775V141.668Z" fill="white" stroke="white"/>
<path d="M601.166 128.68L616.152 143.072L616.494 143.4L616.184 143.758L608.17 153.05C609.397 156.343 610.002 160.597 610.002 165.792C610.002 169.556 609.562 172.861 608.671 175.696C607.774 178.548 606.263 180.959 604.139 182.922L604.14 182.923C602.093 184.888 599.408 186.428 596.104 187.556L596.094 187.559C592.883 188.577 588.928 189.284 584.237 189.688L583.803 192.211C588.725 192.531 592.922 193.034 596.388 193.727L597.057 193.852C600.365 194.501 603.104 195.509 605.253 196.891C607.544 198.364 609.198 200.258 610.193 202.572C611.264 204.878 611.786 207.772 611.786 211.227C611.786 216.995 610.626 221.554 608.242 224.842C605.886 228.092 602.796 230.489 598.985 232.03L598.984 232.029C595.279 233.559 591.063 234.479 586.343 234.799L586.344 234.8C581.733 235.118 577.083 235.278 572.393 235.278C562.908 235.278 552.596 233.843 541.463 230.98L541.016 230.865L541.095 230.411L544.782 209.121L544.882 208.543L545.435 208.732C553.54 211.486 562.959 212.869 573.701 212.869C575.28 212.869 576.615 212.829 577.71 212.75L577.727 212.749H577.745C578.668 212.749 579.412 212.724 579.98 212.677V208.633C575.921 208.627 572.589 208.549 569.985 208.396H569.977L569.971 208.395C567.274 208.157 565.217 207.837 563.82 207.428C562.46 207.068 561.336 206.705 560.455 206.336C559.602 205.979 558.935 205.599 558.508 205.183C558.066 204.821 557.703 204.492 557.427 204.194C557.154 203.901 556.937 203.609 556.823 203.326L556.818 203.312L556.813 203.297C556.63 202.746 556.55 202.01 556.55 201.118V201.033L556.578 200.953L560.668 189.247C554.054 187.928 548.942 185.35 545.383 181.474L545.379 181.47C541.692 177.374 539.898 171.083 539.898 162.701C539.898 154.328 542.765 147.94 548.544 143.626C554.305 139.326 563.559 137.223 576.199 137.223C578.51 137.223 580.664 137.302 582.661 137.461C584.579 137.539 586.425 137.728 588.199 138.027L600.516 128.643L600.857 128.383L601.166 128.68ZM577.031 157.253C573.644 157.253 571.239 157.61 569.753 158.276L569.524 158.396C568.416 159.044 567.778 160.397 567.778 162.701V171.477H571.68C575.073 171.477 577.483 171.119 578.968 170.451C580.295 169.853 581.052 168.475 581.052 166.031V157.253H577.031Z" fill="white" stroke="white"/>
<path d="M531.579 211.727H502.034V142.991L502.471 142.936L531.017 139.368L531.579 139.298V211.727Z" fill="white" stroke="white"/>
<path d="M466.65 121.523V187.891H495.196V211.727H437.105V121.523H466.65Z" fill="white" stroke="white"/>
<path d="M346.085 141.668C352.072 138.703 358.648 137.223 365.805 137.223C373.311 137.223 379.07 138.699 383 141.728H382.999C386.939 144.686 388.903 148.843 388.903 154.136V211.727H359.358V161.773H355.457C351.987 161.773 349.541 162.13 348.057 162.796C346.809 163.389 346.085 164.765 346.085 167.22V211.727H316.54V117.991L317.003 117.957L345.548 115.815L346.085 115.775V141.668Z" fill="white" stroke="white"/>
<path d="M269.978 137.223C281.437 137.223 290.121 139.19 295.951 143.199C301.816 147.23 304.732 153.284 304.732 161.273V211.727H289.752L289.606 211.58L281.883 203.859C280.501 205.324 278.885 206.651 277.033 207.836L277.034 207.837C275.1 209.127 273.007 210.213 270.755 211.098C268.509 211.98 266.221 212.662 263.894 213.144C261.564 213.626 259.31 213.869 257.132 213.869C253.053 213.869 249.36 213.429 246.06 212.543V212.542C242.83 211.734 240.067 210.396 237.784 208.521C235.491 206.637 233.739 204.145 232.523 201.063C231.304 197.975 230.703 194.222 230.703 189.819C230.703 181.108 234.002 174.518 240.62 170.133C247.203 165.772 257.014 163.627 269.978 163.627H275.187V159.486C273.86 159.415 272.629 159.345 271.492 159.274H271.49C270.31 159.195 269.212 159.157 268.193 159.157C257.528 159.157 248.346 160.46 240.64 163.055L240.085 163.243L239.987 162.664L236.538 142.206L236.465 141.775L236.884 141.646C246.457 138.694 257.491 137.223 269.978 137.223ZM269.859 181.16C266.465 181.16 264.056 181.519 262.57 182.187C261.248 182.782 260.486 184.193 260.486 186.726V192.054H265.934C267.979 192.054 269.652 191.935 270.961 191.704C272.263 191.475 273.156 191.141 273.699 190.742C274.702 189.803 275.187 188.711 275.187 187.44V181.16H269.859Z" fill="white" stroke="white"/>
<path d="M183.809 139.364L183.88 139.781L191.66 185.751H192.242L200.021 139.781L200.092 139.364H229.7L211.704 211.348L211.701 211.358C210.427 216.056 208.948 219.939 207.26 222.997C205.651 226.052 203.752 228.486 201.552 230.281C199.349 232.157 196.782 233.461 193.856 234.192L193.855 234.191C191.03 234.917 187.737 235.277 183.981 235.277H155.769V215.811L156.174 215.732L169.613 213.115C173.042 212.326 175.858 211.511 178.065 210.671C180.284 209.826 181.854 208.97 182.818 208.117L182.824 208.112C183.349 207.662 183.84 207.135 184.296 206.527C184.718 205.964 185.107 205.332 185.468 204.631L185.388 204.353H170.388L170.295 203.974L154.356 139.985L154.202 139.364H183.809Z" fill="white" stroke="white"/>
<path d="M133.767 121.523L133.864 121.898L156.938 211.102L157.1 211.727H125.966L125.875 211.341L122.636 197.574H99.8811L96.7581 211.338L96.6702 211.727H65.5335L65.6946 211.102L88.7688 121.898L88.8665 121.523H133.767ZM105.346 173.856H117.171L111.691 149.88H110.941L105.346 173.856Z" fill="white" stroke="white"/>
<path d="M400 181H421.5" stroke="white" stroke-width="14"/>
</svg>
