<svg width="820" height="820" viewBox="0 0 820 820" fill="none" xmlns="http://www.w3.org/2000/svg">
<path d="M344.204 589.202C306.724 545.658 322.147 419.814 401.465 419.814C480.778 419.814 496.251 576.687 443.351 596.298C503.939 602.278 585.947 574.367 616.329 455.205C650.452 321.227 556.814 134.946 436.739 99C394.878 187.229 209.243 239.682 196.563 408.365C186.624 540.189 311.13 589.202 344.204 589.202Z" fill="url(#paint0_linear_4_79)"/>
<path d="M344.206 658.781L329.915 721.796H196L298.686 324.638H495.059L597.745 721.796H463.83L449.009 658.781H344.206ZM400.313 446.433H393.432L367.496 557.637H425.72L400.313 446.433Z" fill="white"/>
<defs>
<linearGradient id="paint0_linear_4_79" x1="409.714" y1="99" x2="409.714" y2="597.054" gradientUnits="userSpaceOnUse">
<stop stop-color="#00FF00"/>
<stop offset="1" stop-color="#005D00"/>
</linearGradient>
</defs>
</svg>
