<svg width="820" height="312" viewBox="0 0 820 312" fill="none" xmlns="http://www.w3.org/2000/svg">
<rect width="820" height="312" fill="white"/>
<path d="M512.709 135.48C510.253 132.595 511.264 124.256 516.46 124.256C521.655 124.256 522.669 134.651 519.204 135.95C523.173 136.346 528.545 134.497 530.535 126.601C532.77 117.724 526.636 105.382 518.77 103C516.028 108.846 503.868 112.321 503.037 123.498C502.386 132.232 510.542 135.48 512.709 135.48Z" fill="black"/>
<path d="M709.583 158.299H702.446V139.864H709.583V128.446L738.128 121.309V139.864H748V158.299H738.128V190.77C739.317 191.008 740.626 191.246 742.053 191.483C743.48 191.642 744.987 191.761 746.573 191.84L745.264 212.774C732.26 212.774 723.776 212.06 719.811 210.633C716.481 209.443 713.944 207.937 712.199 206.113C710.455 204.21 709.583 201.435 709.583 197.787V158.299Z" fill="black"/>
<path d="M650.367 167.22V211.227H621.821V118.455L650.367 116.314V142.481C656.472 139.309 663.212 137.723 670.586 137.723C678.04 137.723 683.67 139.19 687.476 142.124C691.282 144.978 693.185 148.983 693.185 154.137V211.227H664.639V161.273H660.239C656.75 161.273 654.213 161.63 652.627 162.343C651.12 163.057 650.367 164.683 650.367 167.22Z" fill="black"/>
<path d="M541.588 230.495L545.275 209.205C553.442 211.981 562.917 213.368 573.701 213.368C575.287 213.368 576.635 213.329 577.745 213.249C578.935 213.249 579.846 213.21 580.481 213.13V208.135C576.199 208.135 572.71 208.056 570.014 207.897C567.318 207.659 565.296 207.342 563.948 206.946C561.252 206.232 559.548 205.518 558.834 204.805C557.962 204.091 557.446 203.536 557.288 203.14C557.129 202.664 557.05 201.99 557.05 201.118L561.332 188.867C554.512 187.598 549.319 185.021 545.751 181.136C542.182 177.171 540.398 171.026 540.398 162.7C540.398 154.454 543.213 148.229 548.843 144.027C554.473 139.824 563.591 137.723 576.199 137.723C578.499 137.723 580.639 137.802 582.622 137.961C584.604 138.04 586.507 138.238 588.331 138.556L600.819 129.04L615.806 143.432L607.599 152.947C608.868 156.198 609.502 160.48 609.502 165.793C609.502 169.519 609.066 172.77 608.194 175.546C607.321 178.321 605.854 180.66 603.793 182.563C601.811 184.466 599.194 185.973 595.943 187.083C592.692 188.114 588.648 188.827 583.811 189.224L583.216 192.673C588.37 192.99 592.732 193.505 596.3 194.219C599.868 194.853 602.762 195.884 604.982 197.312C607.202 198.739 608.788 200.563 609.74 202.783C610.771 205.003 611.286 207.818 611.286 211.227C611.286 216.936 610.136 221.377 607.837 224.549C605.537 227.72 602.524 230.059 598.797 231.566C595.15 233.073 590.987 233.984 586.309 234.302C581.71 234.619 577.071 234.777 572.393 234.777C562.957 234.777 552.689 233.35 541.588 230.495ZM567.279 162.7V171.977H571.679C575.089 171.977 577.587 171.621 579.172 170.907C580.758 170.193 581.551 168.568 581.551 166.031V156.753H577.032C573.622 156.753 571.124 157.11 569.538 157.824C568.032 158.537 567.279 160.163 567.279 162.7Z" fill="black"/>
<path d="M531.079 211.227H502.534V143.432L531.079 139.864V211.227Z" fill="black"/>
<path d="M494.696 188.391V211.227H437.605V122.023H466.151V188.391H494.696Z" fill="black"/>
<path d="M345.585 167.22V211.227H317.04V118.455L345.585 116.314V142.481C351.691 139.309 358.431 137.723 365.805 137.723C373.259 137.723 378.888 139.19 382.694 142.124C386.5 144.978 388.404 148.983 388.404 154.137V211.227H359.858V161.273H355.457C351.969 161.273 349.431 161.63 347.845 162.343C346.339 163.057 345.585 164.683 345.585 167.22Z" fill="black"/>
<path d="M269.977 137.723C292.814 137.723 304.232 145.573 304.232 161.273V211.227H289.959L281.871 203.14C280.444 204.725 278.739 206.153 276.757 207.421C274.854 208.69 272.792 209.76 270.572 210.633C268.352 211.505 266.092 212.179 263.793 212.655C261.493 213.13 259.273 213.368 257.132 213.368C253.088 213.368 249.441 212.932 246.19 212.06C243.018 211.267 240.322 209.959 238.102 208.135C235.882 206.311 234.177 203.893 232.987 200.88C231.798 197.867 231.203 194.179 231.203 189.818C231.203 172.691 244.128 164.127 269.977 164.127H275.686V159.013C274.18 158.934 272.792 158.855 271.524 158.775C270.334 158.696 269.224 158.656 268.193 158.656C257.489 158.656 248.251 159.965 240.481 162.581L237.031 142.124C246.546 139.19 257.528 137.723 269.977 137.723ZM259.987 186.726V192.554H265.933C270.057 192.554 272.753 192.078 274.021 191.127C275.131 190.096 275.686 188.867 275.686 187.44V180.66H269.858C266.449 180.66 263.951 181.017 262.365 181.73C260.779 182.444 259.987 184.109 259.987 186.726Z" fill="black"/>
<path d="M185.766 203.853H170.779L154.842 139.864H183.387L191.237 186.25H192.664L200.514 139.864H229.06L211.219 211.227C209.95 215.906 208.483 219.751 206.818 222.764C205.232 225.778 203.369 228.156 201.228 229.901C199.087 231.725 196.589 232.993 193.735 233.707C190.959 234.421 187.708 234.777 183.982 234.777H156.269V216.223L169.709 213.606C176.607 212.02 181.087 210.316 183.149 208.492C183.704 208.016 184.22 207.461 184.695 206.827C185.171 206.192 185.607 205.479 186.004 204.686L185.766 203.853Z" fill="black"/>
<path d="M99.4819 197.074L96.2706 211.227H66.179L89.2532 122.023H133.38L156.454 211.227H126.362L123.032 197.074H99.4819ZM112.089 149.379H110.543L104.715 174.356H117.799L112.089 149.379Z" fill="black"/>
<path d="M400 181H421.5" stroke="black" stroke-width="14"/>
</svg>
